<svg width="156" height="66" viewBox="0 0 156 66" fill="none" xmlns="http://www.w3.org/2000/svg">
<g clip-path="url(#clip0_2419_167)">
<mask id="mask0_2419_167" style="mask-type:luminance" maskUnits="userSpaceOnUse" x="0" y="0" width="156" height="66">
<path d="M155.56 0H0V65.4989H155.56V0Z" fill="white"/>
</mask>
<g mask="url(#mask0_2419_167)">
<path d="M39.0697 11.8484C60.193 22.3917 81.5537 35.3856 96.6724 52.7504C100.194 56.7921 103.25 60.843 105.459 65.4883L18.413 65.2963C12.5841 65.2871 7.40677 65.1499 1.82439 64.8117C0.996717 64.7567 0.177852 64.2995 0.0457768 63.8149C-0.086299 63.3394 0.0721928 62.3793 0.459614 61.6751C6.74641 50.382 13.3502 39.4822 21.3275 28.9115C26.3728 22.2179 32.1489 16.4662 39.0785 11.8484" fill="white"/>
<path d="M143.779 40.6804C118.456 21.1209 85.0931 10.0564 50.2783 6.16095C60.8531 2.19236 74.6597 0.912168 85.5953 0.464101C104.667 -0.304012 123.184 -0.121126 141.701 1.03104C149.274 1.4974 156.916 1.93632 154.953 8.79446C151.871 19.5389 148.041 30.0456 143.77 40.6804" fill="white"/>
</g>
</g>
<defs>
<clipPath id="clip0_2419_167">
<rect width="156" height="66" fill="white"/>
</clipPath>
</defs>
</svg>
