<?xml version="1.0" encoding="UTF-8"?>
<svg id="Layer_2" data-name="Layer 2" xmlns="http://www.w3.org/2000/svg" viewBox="0 0 281.54 25.48">
  <defs>
    <style>
      .cls-1 {
        fill: #181818;
      }
    </style>
  </defs>
  <g id="Layer_1-2" data-name="Layer 1">
    <g>
      <g>
        <polygon class="cls-1" points="3.6 21.73 3.6 3.73 36 3.73 36 .13 0 .13 0 3.73 0 3.73 0 21.73 0 21.73 0 25.33 36 25.33 36 21.73 .24 21.73 3.6 21.73"/>
        <rect class="cls-1" x="14.4" y="10.93" width="18" height="3.6"/>
        <rect class="cls-1" x="32.4" y="10.93" width="3.6" height="10.8"/>
      </g>
      <g>
        <rect class="cls-1" x="87.74" y="21.88" width="21.84" height="3.6"/>
        <rect class="cls-1" x="84.14" y="0" width="3.6" height="25.47"/>
      </g>
      <polyline class="cls-1" points="42.07 3.74 42.07 21.74 42.07 21.74 42.07 25.34 78.07 25.34 78.07 21.74 78.07 21.74 78.07 3.74 74.47 3.74 74.47 21.74 45.74 21.72 45.74 21.72 45.6 3.74 78.07 3.74 78.07 .14 42.07 .14 42.07 3.74"/>
      <g>
        <rect class="cls-1" x="115.65" y=".14" width="36" height="3.6"/>
        <polygon class="cls-1" points="151.65 3.74 148.05 3.74 148.05 21.74 115.64 21.74 115.65 25.34 151.64 25.34 151.64 21.74 151.65 21.74 151.65 3.74"/>
      </g>
      <g>
        <rect class="cls-1" x="175.77" y="11.35" width="18" height="3.6"/>
        <polygon class="cls-1" points="211.78 3.44 211.78 3.44 211.78 .14 175.78 .14 175.78 3.74 208.18 3.74 208.18 21.74 175.78 21.74 175.78 25.34 211.78 25.34 211.78 21.74 211.78 21.74 211.78 3.44"/>
      </g>
      <polygon class="cls-1" points="222.31 25.32 237.55 6.07 252.69 25.32 257.14 25.32 237.56 .17 237.55 .16 217.87 25.32 222.31 25.32"/>
      <polygon class="cls-1" points="277.05 .28 264.98 15.53 252.98 .28 248.5 .28 263.2 19.16 263.2 25.2 266.8 25.2 266.8 19.11 281.54 .28 277.05 .28"/>
    </g>
  </g>
</svg>